<svg width="31" height="46" viewBox="0 0 31 46" fill="none" xmlns="http://www.w3.org/2000/svg">
<g opacity="0.3">
<g opacity="0.3">
<path opacity="0.3" d="M30.1605 19.3787C29.8125 19.2296 29.9119 19.4284 29.6634 19.3787C29.4149 19.329 28.9676 19.2296 28.9676 19.2296C28.9676 19.2296 29.564 19.9255 30.1107 20.0746C29.7628 20.2734 28.8682 20.3231 28.8682 20.3231C28.8682 20.3231 29.5143 20.5219 29.7131 20.671C29.8125 20.7704 30.4587 20.7207 30.9557 20.7207C30.9557 20.2734 30.906 19.8758 30.8563 19.4284C30.5084 19.4284 30.3096 19.4284 30.1605 19.3787Z" fill="#2F80ED"/>
</g>
</g>
<path d="M10.9746 1.83347C10.9746 1.83347 10.6267 1.88317 10.5273 1.98258C9.23498 2.77783 8.14151 3.7719 7.34625 5.01449C5.30841 8.1955 3.27057 11.4262 1.48125 14.7066C0.636294 16.2475 0.188963 17.9374 0.338073 19.7267C0.487183 21.019 0.984218 22.1622 1.87888 23.1562C2.07769 23.355 2.32621 23.4544 1.97829 23.8521C1.58066 24.2 1.58066 24.8461 1.48125 25.3929C1.38185 26.0887 1.43155 26.8343 1.53096 27.5301C1.72977 28.8224 1.82918 30.1147 1.68007 31.4567L1.48125 32.4011C0.586591 34.9856 0.0895563 37.6199 0.387777 40.4033C0.43748 40.8506 0.536887 41.298 0.735701 41.6956C1.08362 42.4411 0.984217 43.137 0.58659 43.7831C-0.158961 45.0257 0.188964 45.0754 1.48125 45.1748C2.2268 45.2245 3.02206 45.2742 3.81731 45.1748C4.56286 45.0754 4.71197 44.8269 4.56286 44.1808C4.41375 43.5346 4.56286 42.8885 4.86108 42.292C5.80545 40.2542 7.44566 38.6637 9.18528 37.1726C9.43379 36.9738 9.4835 37.1726 9.63261 37.272C10.8752 38.3655 12.2172 39.4092 13.758 40.1548C14.0065 40.2542 13.9071 40.453 13.9071 40.6021C13.9568 41.8944 14.1059 43.1867 14.6527 44.3796C14.8515 44.8766 15.3485 45.1748 15.9449 45.2245C17.6349 45.2742 19.2751 45.2245 20.965 45.1748C21.0147 45.1748 21.0644 45.1251 21.1141 45.1251C20.9153 44.7772 20.6171 44.6778 20.3188 44.5287C19.9709 44.3796 19.5733 44.2802 19.1757 44.1311C18.3804 43.7831 18.0822 43.2861 18.3307 42.4908C18.7283 40.9997 18.9271 39.4589 18.8774 37.9181C18.8774 37.3714 18.778 36.8247 18.6289 36.3276L17.9331 33.9419C17.6846 32.9975 17.4857 32.0531 17.436 31.0591L17.2869 28.7727C17.2372 28.0272 17.1875 27.0828 17.0384 26.4367C17.0384 26.4367 17.0881 26.3869 17.1875 26.3372C17.3366 26.2378 17.5354 26.1881 17.784 26.1384C20.0703 25.4426 21.1638 24.0012 20.8656 22.0627C20.7165 21.1184 20.2194 20.2734 19.623 19.5279C18.9271 18.7326 18.4798 17.838 18.3307 16.7942C18.1816 15.9492 18.0325 15.1043 17.8337 14.309C17.5852 13.1658 17.1378 12.1221 16.3426 11.2274C16.0443 10.8795 15.7958 10.4819 15.9449 9.98483C15.9946 9.73631 15.8952 9.68661 15.6964 9.68661C15.4479 9.6369 15.1994 9.5375 15.0503 9.43809C16.3426 9.6369 17.7343 9.83572 19.126 9.78601C19.3745 9.78601 19.7224 9.83572 19.8715 9.53749C20.0206 9.23927 19.7721 9.09016 19.5733 8.79194C20.8159 8.94105 20.7165 7.89728 21.1141 7.35054C21.2632 7.10203 20.965 6.90321 20.7662 6.7541C20.3685 6.45588 19.9212 6.20737 19.5236 5.90915C19.0266 5.56122 18.8277 5.06419 18.9768 4.46775C19.126 3.87131 18.778 3.37427 18.4301 2.92694C18.1319 2.57902 17.9828 2.2808 18.2313 1.83347C18.3804 1.53525 18.3307 1.23703 18.3307 0.938807C18.2313 0.0441454 17.5354 -0.254075 16.7899 0.292662C15.9946 0.889103 15.1 0.98851 14.1556 0.889103C13.8574 0.8394 13.5592 0.739993 13.3604 0.491476C13.0124 0.143552 12.6148 -0.104965 12.1178 0.0441454C11.571 0.193256 11.3225 0.590883 11.1734 1.08792C10.9249 1.28673 11.1237 1.48554 10.9746 1.83347Z" fill="#2F80ED"/>
<path d="M14.7023 26.0887C14.2053 26.0887 13.8574 25.9893 13.6089 25.7905C13.5095 25.6911 13.2609 26.0887 12.5651 25.8402C12.5651 25.8402 13.3106 25.7408 13.2609 25.4426C13.2112 25.2438 13.2112 25.2438 13.1118 25.045C13.0124 24.8959 12.4657 25.2438 12.0681 25.0947C12.0681 25.0947 12.8633 24.8959 12.9627 24.697C13.0621 24.5479 12.913 24.3988 12.8633 24.2C12.7639 24.0509 12.416 24.2994 11.9189 24.0509C11.9189 24.0509 13.0124 23.9018 13.1615 23.5539C13.6089 22.7089 14.7023 21.7148 14.7023 21.7148C14.7023 21.7148 13.41 23.3054 13.5095 24.2C13.6089 25.1444 14.7023 26.0887 14.7023 26.0887Z" fill="white"/>
<path d="M10.7258 16.9434C10.8749 16.9434 11.372 17.1919 11.7696 17.2416C12.1175 17.2416 12.5151 17.3907 12.714 17.5398C12.714 17.5398 12.0181 17.341 11.9684 17.4901C11.9187 17.5895 12.0678 17.7883 12.1175 18.0368C12.1175 18.0865 12.9625 18.3351 12.9625 18.4345C12.9625 18.4345 12.1175 18.3351 12.1672 18.4842C12.2169 18.6333 12.2666 18.8321 12.3163 18.9812C12.3163 19.0309 13.0122 19.18 13.0122 19.2297C13.0122 19.2297 12.366 19.2297 12.366 19.3788C12.2666 20.8699 4.6123 22.9575 4.6123 22.9575C4.6123 22.9575 11.6702 20.7705 11.9187 18.7824C12.0678 17.8877 10.7258 16.9434 10.7258 16.9434Z" fill="white"/>
</svg>
